<svg xmlns="http://www.w3.org/2000/svg" xmlns:xlink="http://www.w3.org/1999/xlink" viewBox="0 0 1500 1000"><defs><style>.cls-1{fill:none;}.cls-2{isolation:isolate;}.cls-3{clip-path:url(#clip-path);}.cls-4,.cls-9{fill:red;}.cls-5{fill:#060;}.cls-10,.cls-11,.cls-12,.cls-6,.cls-7{fill:#ff0;}.cls-11,.cls-12,.cls-6,.cls-7,.cls-8,.cls-9{stroke:#000;}.cls-6,.cls-7{stroke-linecap:round;stroke-linejoin:round;fill-rule:evenodd;}.cls-6{stroke-width:0.57px;}.cls-7{stroke-width:0.55px;}.cls-14,.cls-8{fill:#fff;}.cls-8{stroke-width:0.67px;}.cls-9{stroke-width:0.51px;}.cls-11{stroke-width:0.5px;}.cls-12{stroke-width:0.5px;}.cls-13{fill:#039;}.cls-15{mix-blend-mode:multiply;}.cls-15,.cls-16{fill:url(#linear-gradient);}.cls-16{opacity:0.25;mix-blend-mode:overlay;}</style><clipPath id="clip-path"><path class="cls-1" d="M1380.88,369.42V626.19s-.37,0-.37-.3V881.11c-405.23-227.83-810.5,229-1215.39.38V118.43C570,347.48,975.28-109.78,1380.51,118.1v251A.36.36,0,0,0,1380.88,369.42Z"/></clipPath><linearGradient id="linear-gradient" x1="165.12" y1="500" x2="1380.88" y2="500" gradientUnits="userSpaceOnUse"><stop offset="0" stop-color="#fff"/><stop offset="0.13" stop-color="#f7f7f7"/><stop offset="0.34" stop-color="#e0e0e1"/><stop offset="0.54" stop-color="#c4c5c6"/><stop offset="0.57" stop-color="#c1c2c3"/><stop offset="0.69" stop-color="#bebfc0"/><stop offset="0.91" stop-color="#fff"/></linearGradient></defs><g class="cls-2"><g id="Layer_1" data-name="Layer 1"><g class="cls-3"><rect class="cls-4" x="78.72" y="52.48" width="1342.57" height="895.04"/><rect class="cls-5" x="78.72" y="52.48" width="537.03" height="895.04"/><path class="cls-6" d="M790.81,638.82c-67.59-2-377.57-195.52-379.7-226.33l17.12-28.55C459,428.62,775.87,616.79,807,610.12l-16.18,28.69"/><path class="cls-6" d="M424.63,380.06c-6.07,16.32,80.89,70.08,185.5,133.71S805,616.71,811.64,611.08c.41-.73,3.29-5.69,3-5.65-1.25,1.89-4.3,2.48-9.06,1.11-28.26-8.15-102-42-193.27-97.35S441.61,402.81,429.27,381.13a13.15,13.15,0,0,1-1.35-6.37h-.3l-2.63,4.6-.36.72h0ZM792.4,639.72c-1.14,2.08-3.28,2.15-7.34,1.7-25.29-2.8-102-40.11-192.8-94.46C486.63,483.73,399.38,426.11,408.85,411.05l2.57-4.55.51.16c-8.51,25.52,172.18,128.83,182.82,135.42,104.55,64.77,192.69,102.6,200.49,92.77l-2.84,4.88Z"/><path class="cls-6" d="M616.12,431.15c67.66-.54,151.15-9.25,199.2-28.4L805,385.93c-28.4,15.72-112.35,26.06-189.42,27.6-91.15-.83-155.49-9.32-187.73-30.95l-9.77,17.91c59.26,25.08,120,30.4,198.07,30.66"/><path class="cls-6" d="M818.11,403.13c-1.65,2.65-33,13.45-79.15,21.43-31.3,4.77-72.13,8.85-123.08,8.9A872,872,0,0,1,498,426c-48.46-7.6-73.47-18.17-82.72-21.9.89-1.76,1.46-3,2.31-4.64,26.62,10.6,51.74,17,81.18,21.52a863.51,863.51,0,0,0,117,7.48A821.58,821.58,0,0,0,738,419.39c47.34-7.64,73.2-17.46,76.83-22l3.34,5.77h0ZM809,386.08c-5.13,4.12-30.7,13.18-75.68,20.37a814.86,814.86,0,0,1-117,8.2c-46.32,0-84.17-3.08-113-7.27-45.68-6-70-16.73-78.76-19.87.88-1.51,1.76-3,2.68-4.5,6.82,3.43,30.28,12.95,76.58,19.51,28.46,4,66.37,7.05,112.47,7a803.93,803.93,0,0,0,116.09-8.25c45.21-6.22,69.54-17.79,73.23-20.68l3.3,5.48Z"/><path class="cls-6" d="M394,512.66C435.57,535.05,528,546.33,615.46,547.1c79.64.13,183.39-12.31,222.19-32.87l-1.07-22.4c-12.14,19-123.32,37.16-222,36.42s-190.28-16-220.83-35.71l.18,20.12"/><path class="cls-6" d="M839.77,509.44v5.34c-5.83,7-42.39,17.52-88.24,24.94-34.9,5.35-80.39,9.38-137.08,9.38-53.86,0-96.81-3.84-130.11-9-52.65-7.67-86.33-21.09-93.09-25.1l0-6.23c20.31,13.5,75.32,23.37,93.8,26.4,33.09,5.08,75.78,8.89,129.37,8.89,56.42,0,101.66-4,136.34-9.33,32.89-4.75,79.76-17.11,89-25.33h0Zm0-19v5.34c-5.83,7-42.4,17.51-88.25,24.93-34.89,5.35-80.39,9.39-137.08,9.39-53.86,0-96.8-3.84-130.11-9-52.65-7.66-86.33-21.09-93.09-25.1l0-6.23c20.31,13.5,75.32,23.38,93.8,26.4,33.09,5.08,75.78,8.89,129.37,8.89,56.42,0,101.66-4,136.34-9.33,32.9-4.75,79.76-17.1,89-25.33Z"/><path class="cls-6" d="M615.27,635c-95.7-.57-177.71-26.09-195-30.3l12.63,19.76c30.59,12.87,110.59,32.05,183.32,29.92s136.29-7.75,181.09-29.56l12.94-20.48c-30.52,14.37-134.4,30.51-195,30.66"/><path class="cls-7" d="M802.14,620.2c-1.91,2.91-3.85,5.78-5.81,8.57-21.13,7.45-54.42,15.27-68.47,17.56-28.69,5.91-73.09,10.27-112.49,10.29-84.78-1.24-154.18-17.83-186.83-32l-2.64-4.53.43-.68,4.47,1.73c58.06,20.77,123.27,29.06,185.05,30.55,39.24.14,78.53-4.5,110.29-10.18,48.72-9.76,68.42-17.12,74.46-20.45l1.54-.86h0Zm11.22-18.51.15.17c-1.42,2.4-2.89,4.85-4.39,7.3-11.27,4-41.85,13-86.51,19.22-29.42,4-47.71,7.89-106.24,9-109.67-2.79-180.68-24.24-197.55-29.53l-2.5-4.79c63.56,16.59,128.49,28.17,200.06,29.36,53.55-1.14,76.33-5.09,105.51-9.07,52.07-8.09,78.3-16.67,86.18-19.14-.1-.14-.22-.29-.35-.45l5.65-2.11Z"/><path class="cls-6" d="M814.51,495c.31,63-31.91,119.45-57.86,144.38-36.71,35.26-85.39,57.94-142.24,59C550.93,699.53,491.07,658.14,475,640c-31.39-35.54-56.95-80.68-57.77-141.51,3.89-68.72,30.86-116.58,70-149.41s91.16-48.81,134.52-47.66c50,1.32,108.47,25.86,148.85,74.58,26.46,31.92,37.91,66.57,43.92,119ZM615,279.41c121.91,0,222.18,99.21,222.18,220.86S736.86,721.13,615,721.13,393.59,621.92,393.59,500.27,493,279.41,615,279.41"/><path class="cls-6" d="M615.54,278.66c122,0,221.55,99.53,221.55,221.57S737.57,721.8,615.54,721.8,394,622.27,394,500.23s99.53-221.57,221.55-221.57ZM398.87,500.23c0,119.17,97.86,216.69,216.67,216.69S832.22,619.4,832.22,500.23s-97.87-216.7-216.68-216.7-216.67,97.52-216.67,216.7Z"/><path class="cls-6" d="M615.72,297.07c111.28,0,202.94,91.34,202.94,203S727,703,615.72,703,412.79,611.65,412.79,500s91.66-203,202.93-203ZM417.66,500c0,108.94,89.46,198.08,198.06,198.08S813.78,609,813.78,500,724.33,302,615.72,302,417.66,391.09,417.66,500Z"/><path class="cls-6" d="M624.65,277.76h-19l0,445.2h19.06Z"/><path class="cls-6" d="M622.75,275.22h4.83l0,450.32h-4.84l0-450.32Zm-18.85,0h4.87V725.55h-4.87V275.23Z"/><path class="cls-6" d="M837.24,508.8V492.35l-13.4-12.49-76.08-20.14L638.12,448.53l-132,6.72-94,22.37-19,14.06v16.46l48.06-21.57,114.12-17.9H665l80.55,8.95,56,13.43Z"/><path class="cls-6" d="M615.63,465.92c52.32-.1,103.09,5,143.35,12.8,41.55,8.31,70.8,18.7,80.79,30.37v5.77c-12.06-14.52-51.4-25.16-81.71-31.25-40-7.77-90.39-12.79-142.42-12.7-54.91.11-106,5.31-145.41,13-31.59,6.27-73.73,18.72-79,31v-6c2.89-8.5,34.26-21.21,78.28-30,39.67-7.74,90.89-12.85,146.12-12.95Zm0-19c52.33-.1,103.09,5,143.36,12.8,41.55,8.31,70.79,18.69,80.79,30.36l0,5.78c-12-14.52-51.4-25.16-81.71-31.25-40-7.78-90.38-12.79-142.42-12.69-54.9.09-105.78,5.3-145.16,13-30.49,5.78-74.35,18.72-79.24,31v-6c2.89-8.41,34.9-21.57,78.28-30,39.67-7.74,90.89-12.85,146.12-12.95Z"/><path class="cls-6" d="M614.58,350C697,349.58,769,361.52,801.86,378.37l12,20.77c-28.6-15.42-106.19-31.44-199.16-29-75.75.46-156.69,8.34-197.3,30l14.32-24c33.33-17.28,111.93-26.05,182.86-26.15"/><path class="cls-6" d="M615.68,367.13c47-.12,92.47,2.53,128.61,9.05,33.65,6.26,65.75,15.66,70.34,20.72l3.55,6.29C807,395.9,779.25,387.78,743.59,381c-35.82-6.73-81.23-9-128-8.84-53.08-.18-94.32,2.62-129.71,8.79-37.43,7-63.4,17-69.81,21.77l3.49-6.65c12.45-6.35,32.2-14,65.39-20,36.6-6.69,78.28-8.69,130.73-9Zm0-19c45-.12,89.44,2.39,124.08,8.61,27.32,5.32,54.33,13.62,64.22,21l5.21,8.27c-8.85-9.83-42.15-19.15-71.55-24.37-34.37-5.93-77-8.28-122-8.65-47.24.13-90.89,3-124.76,9.19-32.31,6.15-53.16,13.43-62,19.12l4.57-6.91c12.18-6.41,31.85-12.3,56.62-17.11,34.12-6.21,78-9,125.55-9.16Z"/><path class="cls-6" d="M725.72,592.32c-40.76-7.61-81.6-8.71-110.13-8.38-137.4,1.62-181.79,28.22-187.21,36.27l-10.27-16.74c35-25.35,109.81-39.57,198.23-38.12,45.91.75,85.53,3.8,118.86,10.26l-9.48,16.72"/><path class="cls-7" d="M614.8,581.58c38.23.57,75.74,2.15,112,8.91l-2.62,4.63c-33.64-6.21-69.49-8.59-109.21-8.4-50.71-.39-102,4.34-146.65,17.16-14.09,3.92-37.42,13-39.8,20.46l-2.6-4.3c.75-4.42,14.84-13.6,41.2-21,51.15-14.65,99-17.12,147.72-17.45Zm1.74-19.23c39.6.74,80.5,2.57,120.25,10.44l-2.73,4.82c-35.9-7.12-70.2-9.5-117.29-10.22-50.87.09-104.83,3.72-153.9,18C447,590,419.69,600,418.78,607.86l-2.61-4.62c.6-7.18,24.26-16.53,45.56-22.73,49.44-14.37,103.54-18.07,154.81-18.16Z"/><path class="cls-6" d="M811.71,606,795.2,631.64,747.76,589.5,624.69,506.71,486,430.63l-72-24.63,15.35-28.46,5.22-2.85,44.75,11.19L626.93,462l85,53.7,71.6,51.47,29.09,33.56Z"/><path class="cls-6" d="M411.34,406.67C424,398.1,516.82,439.46,614,498c96.9,58.75,189.48,125.13,181.12,137.55l-2.75,4.33-1.26,1c.27-.19,1.66-1.9-.14-6.5-4.12-13.58-69.8-66-178.77-131.79C505.93,439.28,417.4,401.1,408.55,412l2.79-5.34Zm403.75,199c8-15.78-78.13-80.65-184.9-143.81C521,399.93,442.25,363.49,427.87,374.36l-3.2,5.81c0,.32.12-.39.8-.91,2.61-2.29,6.94-2.13,8.9-2.17,24.76.37,95.47,32.92,194.68,89.79C672.53,492.2,812.7,582.1,812.16,607.38c0,2.17.18,2.62-.63,3.7l3.56-5.43Z"/><path class="cls-8" d="M482.83,524.64A131.4,131.4,0,0,0,521.89,618c24.2,24.12,57.09,39.33,93.55,39.33A133.07,133.07,0,0,0,748.5,524.75h0V347.56l-265.69-.32,0,177.4Z"/><path class="cls-9" d="M487.8,524.88v.1a126.21,126.21,0,0,0,37.53,89.53,127.23,127.23,0,0,0,180,.19,126.17,126.17,0,0,0,37.36-89.6h0V353.19l-254.73,0-.16,171.73M691.46,404.62V514l-.09,11.57h0a82.47,82.47,0,0,1-.54,9.47,74.29,74.29,0,0,1-21.8,44.1,76.08,76.08,0,0,1-53.81,22.24c-20.87,0-39.47-8.81-53.32-22.6a76,76,0,0,1-22.44-53.58l0-120.88,152,.27h0Z"/><g id="castle3"><g id="castle"><path class="cls-10" d="M504.29,398c.3-12.35,9.07-15.28,9.13-15.32s9.47,3.15,9.44,15.44L504.29,398"/><path class="cls-11" d="M496.72,383l-1.52,14.2,9.26,0c.09-11.75,8.9-13.7,9.11-13.66s8.93,2.6,9.16,13.66H532l-1.68-14.31-33.61.09h0Z"/><path class="cls-11" d="M494.58,397.2H532.5a1.79,1.79,0,0,1,0,3.51H494.58a1.78,1.78,0,0,1,0-3.51Z"/><path class="cls-11" d="M508.36,397.14c0-7.42,5.06-9.51,5.09-9.51s5.24,2.16,5.28,9.51H508.36"/><path class="cls-11" d="M495.38,377h36.35a1.59,1.59,0,0,1,0,3.16H495.38a1.59,1.59,0,0,1,0-3.16Z"/><path class="cls-11" d="M496.14,380.22h34.77a1.6,1.6,0,0,1,0,3.15H496.14a1.6,1.6,0,0,1,0-3.15Z"/><path class="cls-11" d="M507.38,356.52h2.74v2h2v-2h2.82v2h2v-2h2.82V361a1.16,1.16,0,0,1-1.22,1.16h-9.87a1.26,1.26,0,0,1-1.28-1.18v-4.44h0Z"/><path class="cls-11" d="M517.71,362.54l.62,14.44-9.62,0,.63-14.43,8.37,0"/><path id="cp1" class="cls-11" d="M506,369.23l.29,7.79H497l.26-7.79Z"/><path id="cp1-2" data-name="cp1" class="cls-11" d="M529.7,369.23,530,377h-9.23l.26-7.79h8.67Z"/><path id="cp2" class="cls-11" d="M495.58,363.6h2.69v1.95h2v-2H503v2h2v-2h2.75v4.5a1.15,1.15,0,0,1-1.2,1.16h-9.66a1.24,1.24,0,0,1-1.25-1.17V363.6Z"/><path id="cp2-2" data-name="cp2" class="cls-11" d="M519.32,363.6H522v1.95h2v-2h2.75v2h2v-2h2.75v4.5a1.15,1.15,0,0,1-1.2,1.16h-9.66a1.24,1.24,0,0,1-1.25-1.17V363.6Z"/><path d="M512.59,367.11a1,1,0,1,1,1.94,0v3.44h-1.94v-3.44"/><path id="cp3" d="M500.66,372.1a.93.93,0,1,1,1.85,0v2.65h-1.85V372.1"/><path id="cp3-2" data-name="cp3" d="M524.47,372.1a.93.93,0,1,1,1.85,0v2.65h-1.85V372.1"/></g><g id="castle-2" data-name="castle"><path class="cls-10" d="M504.29,501.68c.3-12.36,9.07-15.28,9.13-15.32s9.47,3.15,9.44,15.43l-18.57-.11"/><path class="cls-11" d="M496.72,486.6l-1.52,14.19,9.26,0c.09-11.74,8.9-13.7,9.11-13.65s8.93,2.59,9.16,13.65H532l-1.68-14.3-33.61.08h0Z"/><path class="cls-11" d="M494.58,500.85H532.5a1.78,1.78,0,0,1,0,3.5H494.58a1.78,1.78,0,0,1,0-3.5Z"/><path class="cls-11" d="M508.36,500.78c0-7.41,5.06-9.51,5.09-9.5s5.24,2.16,5.28,9.5H508.36"/><path class="cls-11" d="M495.38,480.69h36.35a1.59,1.59,0,0,1,0,3.15H495.38a1.59,1.59,0,0,1,0-3.15Z"/><path class="cls-11" d="M496.14,483.87h34.77a1.6,1.6,0,0,1,0,3.15H496.14a1.6,1.6,0,0,1,0-3.15Z"/><path class="cls-11" d="M507.38,460.17h2.74v1.95h2v-2h2.82v2h2v-2h2.82v4.5a1.16,1.16,0,0,1-1.22,1.17h-9.87a1.26,1.26,0,0,1-1.28-1.18v-4.45h0Z"/><path class="cls-11" d="M517.71,466.19l.62,14.43-9.62,0,.63-14.44,8.37,0"/><path id="cp1-3" data-name="cp1" class="cls-11" d="M506,472.88l.29,7.78H497l.26-7.79Z"/><path id="cp1-4" data-name="cp1" class="cls-11" d="M529.7,472.88l.3,7.78h-9.23l.26-7.79h8.67Z"/><path id="cp2-3" data-name="cp2" class="cls-11" d="M495.58,467.24h2.69v1.95h2v-2H503v2h2v-2h2.75v4.5a1.16,1.16,0,0,1-1.2,1.16h-9.66a1.24,1.24,0,0,1-1.25-1.18v-4.45Z"/><path id="cp2-4" data-name="cp2" class="cls-11" d="M519.32,467.24H522v1.95h2v-2h2.75v2h2v-2h2.75v4.5a1.16,1.16,0,0,1-1.2,1.16h-9.66a1.24,1.24,0,0,1-1.25-1.18v-4.45Z"/><path d="M512.59,470.75a1,1,0,1,1,1.94,0v3.44h-1.94v-3.44"/><path id="cp3-3" data-name="cp3" d="M500.66,475.74a.93.93,0,1,1,1.85,0v2.66h-1.85v-2.66"/><path id="cp3-4" data-name="cp3" d="M524.47,475.74a.93.93,0,1,1,1.85,0v2.66h-1.85v-2.66"/></g><g id="castle-3" data-name="castle"><path class="cls-10" d="M544.7,609.56c-8.55-8.92-4.45-17.2-4.44-17.27s8.91-4.5,17.61,4.18L544.7,609.56"/><path class="cls-12" d="M528.67,604.3l9,11.09,6.54-6.56c-8.27-8.34-3.45-16-3.27-16.09s8.13-4.5,16.14,3.13l6.55-6.59-11.34-8.89L528.67,604.3Z"/><path class="cls-12" d="M537.27,615.87,564,589a1.64,1.64,0,0,1,2.27.21,1.62,1.62,0,0,1,.21,2.26l-26.71,26.91a1.78,1.78,0,0,1-2.49-2.47Z"/><path class="cls-12" d="M546.94,606c-5.23-5.25-3.19-10.29-3.17-10.31s5.23-2.19,10.47,2.95l-7.3,7.36"/><path class="cls-12" d="M523.53,601.09l25.62-25.79a1.58,1.58,0,0,1,2.23,2.22l-25.61,25.79a1.48,1.48,0,0,1-2.1-.12A1.5,1.5,0,0,1,523.53,601.09Z"/><path class="cls-12" d="M526.32,602.79l24.5-24.67a1.6,1.6,0,0,1,2.24,2.22L528.56,605a1.6,1.6,0,0,1-2.24-2.22Z"/><path class="cls-12" d="M517.42,578.12l1.94-1.94,1.38,1.37,1.42-1.42-1.42-1.4,2-2,1.41,1.4,1.41-1.43-1.41-1.4,2-2,3.19,3.18a1.16,1.16,0,0,1,0,1.69l-6.95,7a1.27,1.27,0,0,1-1.74.08l-3.16-3.13h0Z"/><path class="cls-12" d="M529,575l10.68,9.73-6.81,6.81-9.8-10.63L529,575"/><path id="cp1-5" data-name="cp1" class="cls-12" d="M525.45,588.08l5.73,5.27-6.5,6.56-5.34-5.67,6.11-6.16Z"/><path id="cp1-6" data-name="cp1" class="cls-12" d="M542.18,571.23l5.72,5.28-6.5,6.55-5.34-5.67,6.12-6.16Z"/><path id="cp2-5" data-name="cp2" class="cls-12" d="M514.13,591.47l1.9-1.9,1.38,1.38,1.39-1.39-1.42-1.41,1.94-1.95,1.42,1.4,1.38-1.39-1.42-1.41,1.95-1.95,3.19,3.18a1.16,1.16,0,0,1,0,1.67L519,594.55a1.26,1.26,0,0,1-1.72.06l-3.16-3.13h0Z"/><path id="cp2-6" data-name="cp2" class="cls-12" d="M530.86,574.63l1.89-1.9,1.39,1.37,1.38-1.39-1.41-1.41,1.94-1.94,1.41,1.4,1.39-1.4-1.42-1.4,1.94-2,3.19,3.17a1.15,1.15,0,0,1,0,1.67l-6.8,6.85a1.25,1.25,0,0,1-1.72.06l-3.16-3.13Z"/><path d="M528.61,581.88a1,1,0,1,1,1.36-1.37l2.44,2.42-1.36,1.37-2.44-2.42"/><path id="cp3-5" data-name="cp3" d="M523.74,593.86a.93.93,0,1,1,1.31-1.31l1.88,1.87-1.3,1.31-1.88-1.87"/><path id="cp3-6" data-name="cp3" d="M540.52,577a.93.93,0,1,1,1.3-1.31l1.89,1.87-1.3,1.32L540.52,577"/></g></g><g id="castle-4" data-name="castle"><path class="cls-10" d="M606.58,398c.3-12.35,9.07-15.28,9.13-15.32s9.47,3.15,9.44,15.44L606.58,398"/><path class="cls-11" d="M599,383l-1.52,14.2,9.26,0c.09-11.75,8.9-13.7,9.11-13.66s8.92,2.6,9.16,13.66h9.29l-1.68-14.31L599,383h0Z"/><path class="cls-11" d="M596.87,397.2h37.91a1.78,1.78,0,0,1,0,3.51H596.87a1.78,1.78,0,0,1,0-3.51Z"/><path class="cls-11" d="M610.65,397.14c0-7.42,5.06-9.51,5.09-9.51s5.24,2.16,5.28,9.51H610.65"/><path class="cls-11" d="M597.67,377H634a1.59,1.59,0,0,1,0,3.16H597.67a1.59,1.59,0,0,1,0-3.16Z"/><path class="cls-11" d="M598.43,380.22H633.2a1.6,1.6,0,0,1,0,3.15H598.43a1.6,1.6,0,0,1,0-3.15Z"/><path class="cls-11" d="M609.67,356.52h2.74v2h2v-2h2.82v2h2v-2h2.82V361a1.16,1.16,0,0,1-1.22,1.16H611a1.26,1.26,0,0,1-1.28-1.18v-4.44h0Z"/><path class="cls-11" d="M620,362.54l.62,14.44-9.63,0,.64-14.43,8.37,0"/><path id="cp1-7" data-name="cp1" class="cls-11" d="M608.26,369.23l.29,7.79h-9.23l.26-7.79Z"/><path id="cp1-8" data-name="cp1" class="cls-11" d="M632,369.23l.3,7.79h-9.23l.26-7.79H632Z"/><path id="cp2-7" data-name="cp2" class="cls-11" d="M597.87,363.6h2.69v1.95h2v-2h2.75v2h2v-2H610v4.5a1.15,1.15,0,0,1-1.2,1.16h-9.66a1.24,1.24,0,0,1-1.25-1.17V363.6Z"/><path id="cp2-8" data-name="cp2" class="cls-11" d="M621.61,363.6h2.69v1.95h2v-2H629v2h2v-2h2.75v4.5a1.15,1.15,0,0,1-1.2,1.16h-9.66a1.24,1.24,0,0,1-1.25-1.17V363.6Z"/><path d="M614.88,367.11a1,1,0,1,1,1.94,0v3.44h-1.94v-3.44"/><path id="cp3-7" data-name="cp3" d="M603,372.1a.93.93,0,1,1,1.85,0v2.65H603V372.1"/><path id="cp3-8" data-name="cp3" d="M626.76,372.1a.93.93,0,1,1,1.85,0v2.65h-1.85V372.1"/></g><g id="castle3-2" data-name="castle3"><g id="castle-5" data-name="castle"><path class="cls-10" d="M726.73,398c-.3-12.35-9.06-15.28-9.13-15.32s-9.47,3.15-9.43,15.44l18.56-.12"/><path class="cls-11" d="M734.3,383l1.52,14.2-9.26,0c-.09-11.75-8.9-13.7-9.11-13.66s-8.92,2.6-9.16,13.66H699l1.68-14.31,33.62.09Z"/><path class="cls-11" d="M736.44,397.2H698.53a1.78,1.78,0,0,0,0,3.51h37.91a1.78,1.78,0,0,0,0-3.51Z"/><path class="cls-11" d="M722.66,397.14c0-7.42-5.06-9.51-5.09-9.51s-5.24,2.16-5.28,9.51h10.37"/><path class="cls-11" d="M735.64,377H699.29a1.59,1.59,0,0,0,0,3.16h36.35a1.59,1.59,0,0,0,0-3.16Z"/><path class="cls-11" d="M734.88,380.22H700.11a1.6,1.6,0,0,0,0,3.15h34.77a1.6,1.6,0,0,0,0-3.15Z"/><path class="cls-11" d="M723.65,356.52H720.9v2h-2v-2h-2.81v2h-2v-2h-2.82V361a1.17,1.17,0,0,0,1.22,1.16h9.88a1.26,1.26,0,0,0,1.27-1.18v-4.44h0Z"/><path class="cls-11" d="M713.31,362.54,712.69,377l9.63,0-.64-14.43-8.37,0"/><path id="cp1-9" data-name="cp1" class="cls-11" d="M725.06,369.23l-.3,7.79H734l-.26-7.79h-8.67Z"/><path id="cp1-10" data-name="cp1" class="cls-11" d="M701.32,369.23,701,377h9.23l-.26-7.79h-8.67Z"/><path id="cp2-9" data-name="cp2" class="cls-11" d="M735.44,363.6h-2.69v1.95h-2v-2H728v2h-2v-2h-2.75v4.5a1.15,1.15,0,0,0,1.2,1.16h9.66a1.24,1.24,0,0,0,1.25-1.17V363.6Z"/><path id="cp2-10" data-name="cp2" class="cls-11" d="M711.7,363.6H709v1.95h-2v-2H704.3v2h-2v-2h-2.75v4.5a1.15,1.15,0,0,0,1.2,1.16h9.66a1.25,1.25,0,0,0,1.26-1.17V363.6Z"/><path d="M718.43,367.11a1,1,0,1,0-1.94,0v3.44h1.94v-3.44"/><path id="cp3-9" data-name="cp3" d="M730.36,372.1a.93.93,0,1,0-1.85,0v2.65h1.85V372.1"/><path id="cp3-10" data-name="cp3" d="M706.55,372.1a.93.93,0,1,0-1.85,0v2.65h1.85V372.1"/></g><g id="castle-6" data-name="castle"><path class="cls-10" d="M726.73,501.68c-.3-12.36-9.06-15.28-9.13-15.32s-9.47,3.15-9.43,15.43l18.56-.11"/><path class="cls-11" d="M734.3,486.6l1.52,14.19-9.26,0c-.09-11.74-8.9-13.7-9.11-13.65s-8.92,2.59-9.16,13.65H699l1.68-14.3,33.62.08Z"/><path class="cls-11" d="M736.44,500.85H698.53a1.78,1.78,0,0,0,0,3.5h37.91a1.78,1.78,0,0,0,0-3.5Z"/><path class="cls-11" d="M722.66,500.78c0-7.41-5.06-9.51-5.09-9.5s-5.24,2.16-5.28,9.5h10.37"/><path class="cls-11" d="M735.64,480.69H699.29a1.59,1.59,0,0,0,0,3.15h36.35a1.59,1.59,0,0,0,0-3.15Z"/><path class="cls-11" d="M734.88,483.87H700.11a1.6,1.6,0,0,0,0,3.15h34.77a1.6,1.6,0,0,0,0-3.15Z"/><path class="cls-11" d="M723.65,460.17H720.9v1.95h-2v-2h-2.81v2h-2v-2h-2.82v4.5a1.17,1.17,0,0,0,1.22,1.17h9.88a1.26,1.26,0,0,0,1.27-1.18v-4.45Z"/><path class="cls-11" d="M713.31,466.19l-.62,14.43,9.63,0-.64-14.44-8.37,0"/><path id="cp1-11" data-name="cp1" class="cls-11" d="M725.06,472.88l-.3,7.78H734l-.26-7.79h-8.67Z"/><path id="cp1-12" data-name="cp1" class="cls-11" d="M701.32,472.88l-.3,7.78h9.23l-.26-7.79h-8.67Z"/><path id="cp2-11" data-name="cp2" class="cls-11" d="M735.44,467.24h-2.69v1.95h-2v-2H728v2h-2v-2h-2.75v4.5a1.16,1.16,0,0,0,1.2,1.16h9.66a1.24,1.24,0,0,0,1.25-1.18v-4.45Z"/><path id="cp2-12" data-name="cp2" class="cls-11" d="M711.7,467.24H709v1.95h-2v-2H704.3v2h-2v-2h-2.75v4.5a1.16,1.16,0,0,0,1.2,1.16h9.66a1.26,1.26,0,0,0,1.26-1.18v-4.45Z"/><path d="M718.43,470.75a1,1,0,1,0-1.94,0v3.44h1.94v-3.44"/><path id="cp3-11" data-name="cp3" d="M730.36,475.74a.93.93,0,1,0-1.85,0v2.66h1.85v-2.66"/><path id="cp3-12" data-name="cp3" d="M706.55,475.74a.93.93,0,1,0-1.85,0v2.66h1.85v-2.66"/></g><g id="castle-7" data-name="castle"><path class="cls-10" d="M686.32,609.56c8.55-8.92,4.45-17.2,4.44-17.27s-8.91-4.5-17.6,4.18l13.16,13.09"/><path class="cls-12" d="M702.35,604.3l-9,11.09-6.54-6.56c8.27-8.34,3.45-16,3.27-16.09s-8.13-4.5-16.14,3.13l-6.54-6.59,11.33-8.89,23.62,23.91Z"/><path class="cls-12" d="M693.75,615.87,667,589a1.64,1.64,0,0,0-2.27.21,1.62,1.62,0,0,0-.21,2.26l26.71,26.91a1.78,1.78,0,0,0,2.49-2.47Z"/><path class="cls-12" d="M684.09,606c5.23-5.25,3.18-10.29,3.16-10.31s-5.23-2.19-10.47,2.95l7.31,7.36"/><path class="cls-12" d="M707.49,601.09,681.88,575.3a1.59,1.59,0,0,0-2.24,2.22l25.61,25.79a1.48,1.48,0,0,0,2.1-.12A1.5,1.5,0,0,0,707.49,601.09Z"/><path class="cls-12" d="M704.7,602.79l-24.5-24.67a1.6,1.6,0,0,0-2.24,2.22L702.46,605a1.6,1.6,0,0,0,2.24-2.22Z"/><path class="cls-12" d="M713.6,578.12l-1.94-1.94-1.38,1.37-1.41-1.42,1.41-1.4-2-2-1.41,1.4-1.41-1.43,1.41-1.4-2-2-3.19,3.18a1.16,1.16,0,0,0,0,1.69l7,7a1.27,1.27,0,0,0,1.74.08l3.16-3.13h0Z"/><path class="cls-12" d="M702,575l-10.68,9.73,6.81,6.81,9.8-10.63L702,575"/><path id="cp1-13" data-name="cp1" class="cls-12" d="M705.57,588.08l-5.73,5.27,6.5,6.56,5.35-5.67-6.12-6.16Z"/><path id="cp1-14" data-name="cp1" class="cls-12" d="M688.85,571.23l-5.73,5.28,6.5,6.55,5.34-5.67-6.12-6.16Z"/><path id="cp2-13" data-name="cp2" class="cls-12" d="M716.89,591.47l-1.9-1.9L713.61,591l-1.39-1.39,1.42-1.41-1.94-1.95-1.41,1.4-1.39-1.39,1.42-1.41-2-1.95L705.18,586a1.16,1.16,0,0,0,0,1.67l6.81,6.85a1.26,1.26,0,0,0,1.72.06l3.16-3.13h0Z"/><path id="cp2-14" data-name="cp2" class="cls-12" d="M700.16,574.63l-1.89-1.9-1.39,1.37-1.38-1.39,1.42-1.41L695,569.36l-1.41,1.4-1.39-1.4,1.42-1.4-1.94-2-3.19,3.17a1.15,1.15,0,0,0,0,1.67l6.8,6.85a1.25,1.25,0,0,0,1.72.06l3.16-3.13Z"/><path d="M702.41,581.88a1,1,0,1,0-1.36-1.37l-2.44,2.42L700,584.3l2.44-2.42"/><path id="cp3-13" data-name="cp3" d="M707.28,593.86a.93.93,0,1,0-1.31-1.31l-1.88,1.87,1.3,1.31,1.89-1.87"/><path id="cp3-14" data-name="cp3" d="M690.5,577a.93.93,0,1,0-1.3-1.31l-1.89,1.87,1.3,1.32L690.5,577"/></g></g><g id="quina"><path class="cls-13" d="M599.27,505.38h0a18.74,18.74,0,0,0,4.94,12.74,15.91,15.91,0,0,0,23.73,0,18.65,18.65,0,0,0,4.93-12.74V481.32l-33.54,0-.07,24.09"/><circle class="cls-14" cx="606.96" cy="490.46" r="3.33"/><circle class="cls-14" cx="625.57" cy="490.47" r="3.33"/><circle class="cls-14" cx="616.25" cy="499.41" r="3.33"/><circle class="cls-14" cx="606.96" cy="508.76" r="3.33"/><circle class="cls-14" cx="625.55" cy="508.74" r="3.33"/></g><g id="quina-2" data-name="quina"><path class="cls-13" d="M599.27,447.17h0a18.69,18.69,0,0,0,4.94,12.73,15.92,15.92,0,0,0,23.73,0,18.65,18.65,0,0,0,4.93-12.74V423.11l-33.54,0-.07,24.09"/><circle class="cls-14" cx="606.96" cy="432.24" r="3.33"/><circle class="cls-14" cx="625.57" cy="432.26" r="3.33"/><circle class="cls-14" cx="616.25" cy="441.19" r="3.33"/><circle class="cls-14" cx="606.96" cy="450.55" r="3.33"/><circle class="cls-14" cx="625.55" cy="450.52" r="3.33"/></g><g id="quina-3" data-name="quina"><path class="cls-13" d="M552.73,505.38h0a18.74,18.74,0,0,0,4.94,12.74,15.91,15.91,0,0,0,23.73,0,18.65,18.65,0,0,0,4.93-12.74V481.32l-33.54,0-.07,24.09"/><circle class="cls-14" cx="560.42" cy="490.46" r="3.33"/><circle class="cls-14" cx="579.03" cy="490.47" r="3.33"/><circle class="cls-14" cx="569.71" cy="499.41" r="3.33"/><circle class="cls-14" cx="560.42" cy="508.76" r="3.33"/><circle class="cls-14" cx="579.01" cy="508.74" r="3.33"/></g><g id="quina-4" data-name="quina"><path class="cls-13" d="M645.68,505.38h0a18.74,18.74,0,0,0,5,12.74,15.91,15.91,0,0,0,23.73,0,18.65,18.65,0,0,0,4.93-12.74V481.32l-33.55,0-.06,24.09"/><circle class="cls-14" cx="653.38" cy="490.46" r="3.33"/><circle class="cls-14" cx="671.99" cy="490.47" r="3.33"/><circle class="cls-14" cx="662.67" cy="499.41" r="3.33"/><circle class="cls-14" cx="653.38" cy="508.76" r="3.33"/><circle class="cls-14" cx="671.97" cy="508.74" r="3.33"/></g><g id="quina-5" data-name="quina"><path class="cls-13" d="M599.27,563.08h0a18.69,18.69,0,0,0,4.94,12.73,15.92,15.92,0,0,0,23.73,0,18.67,18.67,0,0,0,4.93-12.74V539l-33.54,0-.07,24.09"/><circle class="cls-14" cx="606.96" cy="548.15" r="3.33"/><circle class="cls-14" cx="625.57" cy="548.17" r="3.33"/><circle class="cls-14" cx="616.25" cy="557.1" r="3.33"/><circle class="cls-14" cx="606.96" cy="566.46" r="3.33"/><circle class="cls-14" cx="625.55" cy="566.43" r="3.33"/></g></g><path class="cls-15" d="M1380.88,369.42V626.19s-.37,0-.37-.3V881.11c-405.23-227.83-810.5,229-1215.39.38V118.43C570,347.48,975.28-109.78,1380.51,118.1v251A.36.36,0,0,0,1380.88,369.42Z"/><path class="cls-16" d="M1380.88,369.42V626.19s-.37,0-.37-.3V881.11c-405.23-227.83-810.5,229-1215.39.38V118.43C570,347.48,975.28-109.78,1380.51,118.1v251A.36.36,0,0,0,1380.88,369.42Z"/><path class="cls-15" d="M1380.88,369.42V626.19s-.37,0-.37-.3V881.11c-405.23-227.83-810.5,229-1215.39.38V118.43C570,347.48,975.28-109.78,1380.51,118.1v251A.36.36,0,0,0,1380.88,369.42Z"/></g></g></svg>